<svg xmlns="http://www.w3.org/2000/svg" xmlns:xlink="http://www.w3.org/1999/xlink" contentStyleType="text/css" height="654px" preserveAspectRatio="none" style="width:1406px;height:654px;background:#FFFFFF;" version="1.1" viewBox="0 0 1406 654" width="1406px" zoomAndPan="magnify"><defs/><g><!--cluster d77d5e503ad1439f585ac494268b351b--><g id="cluster_d77d5e503ad1439f585ac494268b351b"><polygon fill="none" points="16,16,26,6,404,6,404,298.79,394,308.79,16,308.79,16,16" style="stroke:#181818;stroke-width:1.0;"/><line style="stroke:#181818;stroke-width:1.0;" x1="394" x2="404" y1="16" y2="6"/><line style="stroke:#181818;stroke-width:1.0;" x1="16" x2="394" y1="16" y2="16"/><line style="stroke:#181818;stroke-width:1.0;" x1="394" x2="394" y1="16" y2="308.79"/><text fill="#000000" font-family="sans-serif" font-size="14" font-weight="bold" lengthAdjust="spacing" textLength="21" x="195.5" y="31.9951">Db</text></g><!--cluster 86a1b907d54bf7010394bf316e183e67--><g id="cluster_86a1b907d54bf7010394bf316e183e67"><polygon fill="none" points="428,32.3,438,22.3,584,22.3,584,298.79,574,308.79,428,308.79,428,32.3" style="stroke:#181818;stroke-width:1.0;"/><line style="stroke:#181818;stroke-width:1.0;" x1="574" x2="584" y1="32.3" y2="22.3"/><line style="stroke:#181818;stroke-width:1.0;" x1="428" x2="574" y1="32.3" y2="32.3"/><line style="stroke:#181818;stroke-width:1.0;" x1="574" x2="574" y1="32.3" y2="308.79"/><text fill="#000000" font-family="sans-serif" font-size="14" font-weight="bold" lengthAdjust="spacing" textLength="43" x="480.5" y="48.2951">Redis</text></g><!--cluster d48bac364ad5e16c8a0b13f87d5ae9d5--><g id="cluster_d48bac364ad5e16c8a0b13f87d5ae9d5"><polygon fill="none" points="1064,40.45,1074,30.45,1191,30.45,1191,536.08,1181,546.08,1064,546.08,1064,40.45" style="stroke:#181818;stroke-width:1.0;"/><line style="stroke:#181818;stroke-width:1.0;" x1="1181" x2="1191" y1="40.45" y2="30.45"/><line style="stroke:#181818;stroke-width:1.0;" x1="1064" x2="1181" y1="40.45" y2="40.45"/><line style="stroke:#181818;stroke-width:1.0;" x1="1181" x2="1181" y1="40.45" y2="546.08"/><text fill="#000000" font-family="sans-serif" font-size="14" font-weight="bold" lengthAdjust="spacing" textLength="51" x="1098" y="56.4451">Celery</text></g><!--cluster 06a943c59f33a34bb5924aaf72cd2995--><g id="cluster_06a943c59f33a34bb5924aaf72cd2995"><polygon fill="none" points="608,24.15,618,14.15,1040,14.15,1040,298.79,1030,308.79,608,308.79,608,24.15" style="stroke:#181818;stroke-width:1.0;"/><line style="stroke:#181818;stroke-width:1.0;" x1="1030" x2="1040" y1="24.15" y2="14.15"/><line style="stroke:#181818;stroke-width:1.0;" x1="608" x2="1030" y1="24.15" y2="24.15"/><line style="stroke:#181818;stroke-width:1.0;" x1="1030" x2="1030" y1="24.15" y2="308.79"/><text fill="#000000" font-family="sans-serif" font-size="14" font-weight="bold" lengthAdjust="spacing" textLength="55" x="792.5" y="40.1451">Search</text></g><!--cluster 2567a5ec9705eb7ac2c984033e06189d--><g id="cluster_2567a5ec9705eb7ac2c984033e06189d"><polygon fill="none" points="1215,40.45,1225,30.45,1338,30.45,1338,536.08,1328,546.08,1215,546.08,1215,40.45" style="stroke:#181818;stroke-width:1.0;"/><line style="stroke:#181818;stroke-width:1.0;" x1="1328" x2="1338" y1="40.45" y2="30.45"/><line style="stroke:#181818;stroke-width:1.0;" x1="1215" x2="1328" y1="40.45" y2="40.45"/><line style="stroke:#181818;stroke-width:1.0;" x1="1328" x2="1328" y1="40.45" y2="546.08"/><text fill="#000000" font-family="sans-serif" font-size="14" font-weight="bold" lengthAdjust="spacing" textLength="35" x="1255" y="56.4451">Web</text></g><!--entity 355aeb7ac3f8fa43e8d94fbf0e4b8d6c--><g id="elem_355aeb7ac3f8fa43e8d94fbf0e4b8d6c"><rect fill="#F1F1F1" height="127.7813" rx="2.5" ry="2.5" style="stroke:#181818;stroke-width:0.5;" width="355" x="32.5" y="46"/><rect fill="#F1F1F1" height="10" style="stroke:#181818;stroke-width:0.5;" width="15" x="367.5" y="51"/><rect fill="#F1F1F1" height="2" style="stroke:#181818;stroke-width:0.5;" width="4" x="365.5" y="53"/><rect fill="#F1F1F1" height="2" style="stroke:#181818;stroke-width:0.5;" width="4" x="365.5" y="57"/><text fill="#000000" font-family="sans-serif" font-size="14" font-weight="bold" lengthAdjust="spacing" textLength="20" x="47.5" y="78.9951">db</text><text fill="#000000" font-family="sans-serif" font-size="14" lengthAdjust="spacing" textLength="4" x="47.5" y="95.292">&#160;</text><text fill="#000000" font-family="sans-serif" font-size="14" lengthAdjust="spacing" textLength="113" x="47.5" y="111.5889">image: postgres</text><text fill="#000000" font-family="sans-serif" font-size="14" lengthAdjust="spacing" textLength="272" x="47.5" y="127.8857">environment: POSTGRES_USER=saleor</text><text fill="#000000" font-family="sans-serif" font-size="14" lengthAdjust="spacing" textLength="315" x="47.5" y="144.1826">environment: POSTGRES_PASSWORD=saleor</text><text fill="#000000" font-family="sans-serif" font-size="14" lengthAdjust="spacing" textLength="4" x="47.5" y="160.4795">&#160;</text></g><!--entity 43bb4cb118845f08e05e758d93c57c6e--><g id="elem_43bb4cb118845f08e05e758d93c57c6e"><ellipse cx="210" cy="263.79" fill="#F1F1F1" rx="8" ry="8" style="stroke:#181818;stroke-width:0.5;"/><text fill="#000000" font-family="sans-serif" font-size="14" lengthAdjust="spacing" textLength="36" x="192" y="293.7851">5432</text></g><!--entity 3c217ea98bfddc0f9ff1c849de325d93--><g id="elem_3c217ea98bfddc0f9ff1c849de325d93"><rect fill="#F1F1F1" height="95.1875" rx="2.5" ry="2.5" style="stroke:#181818;stroke-width:0.5;" width="125" x="443.5" y="62.3"/><rect fill="#F1F1F1" height="10" style="stroke:#181818;stroke-width:0.5;" width="15" x="548.5" y="67.3"/><rect fill="#F1F1F1" height="2" style="stroke:#181818;stroke-width:0.5;" width="4" x="546.5" y="69.3"/><rect fill="#F1F1F1" height="2" style="stroke:#181818;stroke-width:0.5;" width="4" x="546.5" y="73.3"/><text fill="#000000" font-family="sans-serif" font-size="14" font-weight="bold" lengthAdjust="spacing" textLength="40" x="458.5" y="95.2951">redis</text><text fill="#000000" font-family="sans-serif" font-size="14" lengthAdjust="spacing" textLength="4" x="458.5" y="111.592">&#160;</text><text fill="#000000" font-family="sans-serif" font-size="14" lengthAdjust="spacing" textLength="85" x="458.5" y="127.8889">image: redis</text><text fill="#000000" font-family="sans-serif" font-size="14" lengthAdjust="spacing" textLength="4" x="458.5" y="144.1857">&#160;</text></g><!--entity 09876deab5af8de0c168ec3aa053742d--><g id="elem_09876deab5af8de0c168ec3aa053742d"><ellipse cx="506" cy="263.79" fill="#F1F1F1" rx="8" ry="8" style="stroke:#181818;stroke-width:0.5;"/><text fill="#000000" font-family="sans-serif" font-size="14" lengthAdjust="spacing" textLength="36" x="488" y="293.7851">6379</text></g><!--entity 08b7fccb45858be7a476d4e427762e0d--><g id="elem_08b7fccb45858be7a476d4e427762e0d"><rect fill="#F1F1F1" height="78.8906" rx="2.5" ry="2.5" style="stroke:#181818;stroke-width:0.5;" width="89" x="1086.5" y="70.45"/><rect fill="#F1F1F1" height="10" style="stroke:#181818;stroke-width:0.5;" width="15" x="1155.5" y="75.45"/><rect fill="#F1F1F1" height="2" style="stroke:#181818;stroke-width:0.5;" width="4" x="1153.5" y="77.45"/><rect fill="#F1F1F1" height="2" style="stroke:#181818;stroke-width:0.5;" width="4" x="1153.5" y="81.45"/><text fill="#000000" font-family="sans-serif" font-size="14" font-weight="bold" lengthAdjust="spacing" textLength="49" x="1101.5" y="103.4451">celery</text><text fill="#000000" font-family="sans-serif" font-size="14" lengthAdjust="spacing" textLength="4" x="1101.5" y="119.742">&#160;</text><text fill="#000000" font-family="sans-serif" font-size="14" lengthAdjust="spacing" textLength="4" x="1101.5" y="136.0389">&#160;</text></g><!--entity dbfab56604b171501410f65b0bb1e8be--><g id="elem_dbfab56604b171501410f65b0bb1e8be"><rect fill="#F1F1F1" height="39.2969" rx="2.5" ry="2.5" style="stroke:#181818;stroke-width:0.5;" width="61" x="1110.5" y="490.79"/><polygon fill="#F1F1F1" points="1154.5,495.79,1154.5,509.79,1166.5,509.79,1166.5,501.79,1160.5,495.79,1154.5,495.79" style="stroke:#181818;stroke-width:0.5;"/><line style="stroke:#181818;stroke-width:0.5;" x1="1160.5" x2="1160.5" y1="495.79" y2="501.79"/><line style="stroke:#181818;stroke-width:0.5;" x1="1166.5" x2="1160.5" y1="501.79" y2="501.79"/><text fill="#000000" font-family="sans-serif" font-size="14" lengthAdjust="spacing" textLength="31" x="1120.5" y="516.7851">/app</text></g><!--entity 7a8f45f24e9c18fac8738cd5979ad4a8--><g id="elem_7a8f45f24e9c18fac8738cd5979ad4a8"><rect fill="#F1F1F1" height="111.4844" rx="2.5" ry="2.5" style="stroke:#181818;stroke-width:0.5;" width="401" x="623.5" y="54.15"/><rect fill="#F1F1F1" height="10" style="stroke:#181818;stroke-width:0.5;" width="15" x="1004.5" y="59.15"/><rect fill="#F1F1F1" height="2" style="stroke:#181818;stroke-width:0.5;" width="4" x="1002.5" y="61.15"/><rect fill="#F1F1F1" height="2" style="stroke:#181818;stroke-width:0.5;" width="4" x="1002.5" y="65.15"/><text fill="#000000" font-family="sans-serif" font-size="14" font-weight="bold" lengthAdjust="spacing" textLength="54" x="638.5" y="87.1451">search</text><text fill="#000000" font-family="sans-serif" font-size="14" lengthAdjust="spacing" textLength="4" x="638.5" y="103.442">&#160;</text><text fill="#000000" font-family="sans-serif" font-size="14" lengthAdjust="spacing" textLength="182" x="638.5" y="119.7389">image: elasticsearch:5.4.3</text><text fill="#000000" font-family="sans-serif" font-size="14" lengthAdjust="spacing" textLength="361" x="638.5" y="136.0357">environment: ES_JAVA_OPTS=-Xms512m -Xmx512m</text><text fill="#000000" font-family="sans-serif" font-size="14" lengthAdjust="spacing" textLength="4" x="638.5" y="152.3326">&#160;</text></g><!--entity 414f203b949f4f66b6669cdc6f82d048--><g id="elem_414f203b949f4f66b6669cdc6f82d048"><ellipse cx="824" cy="263.79" fill="#F1F1F1" rx="8" ry="8" style="stroke:#181818;stroke-width:0.5;"/><text fill="#000000" font-family="sans-serif" font-size="14" lengthAdjust="spacing" textLength="36" x="806" y="293.7851">9200</text></g><!--entity 04a565d19766ebe0348853b17c395bd1--><g id="elem_04a565d19766ebe0348853b17c395bd1"><rect fill="#F1F1F1" height="78.8906" rx="2.5" ry="2.5" style="stroke:#181818;stroke-width:0.5;" width="74" x="1233" y="70.45"/><rect fill="#F1F1F1" height="10" style="stroke:#181818;stroke-width:0.5;" width="15" x="1287" y="75.45"/><rect fill="#F1F1F1" height="2" style="stroke:#181818;stroke-width:0.5;" width="4" x="1285" y="77.45"/><rect fill="#F1F1F1" height="2" style="stroke:#181818;stroke-width:0.5;" width="4" x="1285" y="81.45"/><text fill="#000000" font-family="sans-serif" font-size="14" font-weight="bold" lengthAdjust="spacing" textLength="34" x="1248" y="103.4451">web</text><text fill="#000000" font-family="sans-serif" font-size="14" lengthAdjust="spacing" textLength="4" x="1248" y="119.742">&#160;</text><text fill="#000000" font-family="sans-serif" font-size="14" lengthAdjust="spacing" textLength="4" x="1248" y="136.0389">&#160;</text></g><!--entity fd433df176955d196b161b0a41a19970--><g id="elem_fd433df176955d196b161b0a41a19970"><ellipse cx="1295" cy="263.79" fill="#F1F1F1" rx="8" ry="8" style="stroke:#181818;stroke-width:0.5;"/><text fill="#000000" font-family="sans-serif" font-size="14" lengthAdjust="spacing" textLength="36" x="1277" y="293.7851">8000</text></g><!--entity 874f49994a1f56f4ba4a4da89f34713d--><g id="elem_874f49994a1f56f4ba4a4da89f34713d"><rect fill="#F1F1F1" height="39.2969" rx="2.5" ry="2.5" style="stroke:#181818;stroke-width:0.5;" width="61" x="1233.5" y="490.79"/><polygon fill="#F1F1F1" points="1277.5,495.79,1277.5,509.79,1289.5,509.79,1289.5,501.79,1283.5,495.79,1277.5,495.79" style="stroke:#181818;stroke-width:0.5;"/><line style="stroke:#181818;stroke-width:0.5;" x1="1283.5" x2="1283.5" y1="495.79" y2="501.79"/><line style="stroke:#181818;stroke-width:0.5;" x1="1289.5" x2="1283.5" y1="501.79" y2="501.79"/><text fill="#000000" font-family="sans-serif" font-size="14" lengthAdjust="spacing" textLength="31" x="1243.5" y="516.7851">/app</text></g><!--entity a6cb9d4c61b503da0e4393ef34d932c6--><g id="elem_a6cb9d4c61b503da0e4393ef34d932c6"><ellipse cx="210" cy="400.79" fill="#F1F1F1" rx="8" ry="8" style="stroke:#181818;stroke-width:0.5;"/><text fill="#000000" font-family="sans-serif" font-size="14" lengthAdjust="spacing" textLength="102" x="159" y="430.7851">127.0.0.15432</text></g><!--entity b7fe1b80174213ef4fd0ec63be94522f--><g id="elem_b7fe1b80174213ef4fd0ec63be94522f"><ellipse cx="506" cy="400.79" fill="#F1F1F1" rx="8" ry="8" style="stroke:#181818;stroke-width:0.5;"/><text fill="#000000" font-family="sans-serif" font-size="14" lengthAdjust="spacing" textLength="102" x="455" y="430.7851">127.0.0.16379</text></g><!--entity c50bf13d046061855106b88f888f338d--><g id="elem_c50bf13d046061855106b88f888f338d"><ellipse cx="824" cy="400.79" fill="#F1F1F1" rx="8" ry="8" style="stroke:#181818;stroke-width:0.5;"/><text fill="#000000" font-family="sans-serif" font-size="14" lengthAdjust="spacing" textLength="102" x="773" y="430.7851">127.0.0.19200</text></g><!--entity 1624c420083928ef3e240dd88f2e52f0--><g id="elem_1624c420083928ef3e240dd88f2e52f0"><ellipse cx="1381" cy="400.79" fill="#F1F1F1" rx="8" ry="8" style="stroke:#181818;stroke-width:0.5;"/><text fill="#000000" font-family="sans-serif" font-size="14" lengthAdjust="spacing" textLength="36" x="1363" y="430.7851">8000</text></g><!--entity 58b9e70b65a77700ba66e9c64d6b9f89--><g id="elem_58b9e70b65a77700ba66e9c64d6b9f89"><rect fill="#F1F1F1" height="39.2969" rx="2.5" ry="2.5" style="stroke:#181818;stroke-width:0.5;" width="34" x="1197" y="609.08"/><polygon fill="#F1F1F1" points="1214,614.08,1214,628.08,1226,628.08,1226,620.08,1220,614.08,1214,614.08" style="stroke:#181818;stroke-width:0.5;"/><line style="stroke:#181818;stroke-width:0.5;" x1="1220" x2="1220" y1="614.08" y2="620.08"/><line style="stroke:#181818;stroke-width:0.5;" x1="1226" x2="1220" y1="620.08" y2="620.08"/><text fill="#000000" font-family="sans-serif" font-size="14" lengthAdjust="spacing" textLength="4" x="1207" y="635.0751">.</text></g><!--link 355aeb7ac3f8fa43e8d94fbf0e4b8d6c to 43bb4cb118845f08e05e758d93c57c6e--><g id="link_355aeb7ac3f8fa43e8d94fbf0e4b8d6c_43bb4cb118845f08e05e758d93c57c6e"><path codeLine="54" d="M210,173.99 C210,205.62 210,240.3 210,255.25 " fill="none" id="355aeb7ac3f8fa43e8d94fbf0e4b8d6c-43bb4cb118845f08e05e758d93c57c6e" style="stroke:#181818;stroke-width:1.0;"/></g><!--link 43bb4cb118845f08e05e758d93c57c6e to a6cb9d4c61b503da0e4393ef34d932c6--><g id="link_43bb4cb118845f08e05e758d93c57c6e_a6cb9d4c61b503da0e4393ef34d932c6"><path codeLine="55" d="M210,272.43 C210,296.08 210,367.9 210,391.89 " fill="none" id="43bb4cb118845f08e05e758d93c57c6e-a6cb9d4c61b503da0e4393ef34d932c6" style="stroke:#181818;stroke-width:1.0;"/></g><!--link 3c217ea98bfddc0f9ff1c849de325d93 to 09876deab5af8de0c168ec3aa053742d--><g id="link_3c217ea98bfddc0f9ff1c849de325d93_09876deab5af8de0c168ec3aa053742d"><path codeLine="56" d="M506,157.71 C506,192.57 506,237.1 506,254.91 " fill="none" id="3c217ea98bfddc0f9ff1c849de325d93-09876deab5af8de0c168ec3aa053742d" style="stroke:#181818;stroke-width:1.0;"/></g><!--link 09876deab5af8de0c168ec3aa053742d to b7fe1b80174213ef4fd0ec63be94522f--><g id="link_09876deab5af8de0c168ec3aa053742d_b7fe1b80174213ef4fd0ec63be94522f"><path codeLine="57" d="M506,272.43 C506,296.08 506,367.9 506,391.89 " fill="none" id="09876deab5af8de0c168ec3aa053742d-b7fe1b80174213ef4fd0ec63be94522f" style="stroke:#181818;stroke-width:1.0;"/></g><!--link dbfab56604b171501410f65b0bb1e8be to 58b9e70b65a77700ba66e9c64d6b9f89--><g id="link_dbfab56604b171501410f65b0bb1e8be_58b9e70b65a77700ba66e9c64d6b9f89"><path codeLine="58" d="M1152.89,530.38 C1166.47,552 1188.54,587.17 1202.11,608.8 " fill="none" id="dbfab56604b171501410f65b0bb1e8be-58b9e70b65a77700ba66e9c64d6b9f89" style="stroke:#181818;stroke-width:1.0;"/><text fill="#000000" font-family="sans-serif" font-size="13" lengthAdjust="spacing" textLength="10" x="1182" y="575.1469">Z</text></g><!--link 08b7fccb45858be7a476d4e427762e0d to dbfab56604b171501410f65b0bb1e8be--><g id="link_08b7fccb45858be7a476d4e427762e0d_dbfab56604b171501410f65b0bb1e8be"><path codeLine="59" d="M1131.98,149.83 C1134.08,233.66 1138.8193,422.6319 1140.3693,484.3419 " fill="none" id="08b7fccb45858be7a476d4e427762e0d-to-dbfab56604b171501410f65b0bb1e8be" style="stroke:#181818;stroke-width:1.0;stroke-dasharray:7.0,7.0;"/><polygon fill="#181818" points="1140.52,490.34,1144.2928,481.2424,1140.3945,485.3416,1136.2953,481.4433,1140.52,490.34" style="stroke:#181818;stroke-width:1.0;"/><text fill="#000000" font-family="sans-serif" font-size="13" lengthAdjust="spacing" textLength="23" x="1137" y="337.8569">use</text></g><!--link 7a8f45f24e9c18fac8738cd5979ad4a8 to 414f203b949f4f66b6669cdc6f82d048--><g id="link_7a8f45f24e9c18fac8738cd5979ad4a8_414f203b949f4f66b6669cdc6f82d048"><path codeLine="60" d="M824,165.73 C824,199.38 824,239.04 824,255.28 " fill="none" id="7a8f45f24e9c18fac8738cd5979ad4a8-414f203b949f4f66b6669cdc6f82d048" style="stroke:#181818;stroke-width:1.0;"/></g><!--link 414f203b949f4f66b6669cdc6f82d048 to c50bf13d046061855106b88f888f338d--><g id="link_414f203b949f4f66b6669cdc6f82d048_c50bf13d046061855106b88f888f338d"><path codeLine="61" d="M824,272.43 C824,296.08 824,367.9 824,391.89 " fill="none" id="414f203b949f4f66b6669cdc6f82d048-c50bf13d046061855106b88f888f338d" style="stroke:#181818;stroke-width:1.0;"/></g><!--link 04a565d19766ebe0348853b17c395bd1 to fd433df176955d196b161b0a41a19970--><g id="link_04a565d19766ebe0348853b17c395bd1_fd433df176955d196b161b0a41a19970"><path codeLine="62" d="M1276.37,149.62 C1282.25,185.3 1290.52,235.55 1293.69,254.83 " fill="none" id="04a565d19766ebe0348853b17c395bd1-fd433df176955d196b161b0a41a19970" style="stroke:#181818;stroke-width:1.0;"/></g><!--link fd433df176955d196b161b0a41a19970 to 1624c420083928ef3e240dd88f2e52f0--><g id="link_fd433df176955d196b161b0a41a19970_1624c420083928ef3e240dd88f2e52f0"><path codeLine="63" d="M1299.87,272.43 C1314.94,296.08 1360.69,367.9 1375.97,391.89 " fill="none" id="fd433df176955d196b161b0a41a19970-1624c420083928ef3e240dd88f2e52f0" style="stroke:#181818;stroke-width:1.0;"/></g><!--link 874f49994a1f56f4ba4a4da89f34713d to 58b9e70b65a77700ba66e9c64d6b9f89--><g id="link_874f49994a1f56f4ba4a4da89f34713d_58b9e70b65a77700ba66e9c64d6b9f89"><path codeLine="64" d="M1255.86,530.38 C1246.56,552 1231.44,587.17 1222.14,608.8 " fill="none" id="874f49994a1f56f4ba4a4da89f34713d-58b9e70b65a77700ba66e9c64d6b9f89" style="stroke:#181818;stroke-width:1.0;"/><text fill="#000000" font-family="sans-serif" font-size="13" lengthAdjust="spacing" textLength="10" x="1242" y="575.1469">Z</text></g><!--link 04a565d19766ebe0348853b17c395bd1 to 874f49994a1f56f4ba4a4da89f34713d--><g id="link_04a565d19766ebe0348853b17c395bd1_874f49994a1f56f4ba4a4da89f34713d"><path codeLine="65" d="M1262.48,149.78 C1258.17,174.1 1253.18,206.15 1251,234.79 C1243.69,330.69 1255.1999,439.8258 1260.7499,484.4758 " fill="none" id="04a565d19766ebe0348853b17c395bd1-to-874f49994a1f56f4ba4a4da89f34713d" style="stroke:#181818;stroke-width:1.0;stroke-dasharray:7.0,7.0;"/><polygon fill="#181818" points="1261.49,490.43,1264.3493,481.0053,1260.8732,485.4682,1256.4104,481.9921,1261.49,490.43" style="stroke:#181818;stroke-width:1.0;"/><text fill="#000000" font-family="sans-serif" font-size="13" lengthAdjust="spacing" textLength="23" x="1250" y="337.8569">use</text></g><!--SRC=[bLHTQsD737s_l-BYfpOGTpuqcb5W2w6x5FgI46-xfQKiqemcDSHsiDFkbgN_lNEl4vE4bg4OmzX8HqSwH-AxkzsdpVhpUdixR7T5nyLRMOny64kC9MWmdei5JpMam1a872RnmShuPHZpRdE_s-hsOVGXi4hax6kg35vJ8QXIZOAaWddyTJWxAt9sDWph3T_gnNY_EppSxlKmwFRFzNwttJIOY_7wQlN- -vjtguy_hjxTl3dmdUxs_n5nVRbQVRYwUViKDVmsVFNrk0ZWtTm0U178OcrA4Af9QeB6q7Zv76967Vv-RFX6o_emfoHaAsHQuo0r6ciyjOUtg3PvnVYgv-niLAOajPHiAjLgSm8gwbrePUQUznFuixRdtqzSqKUQ2njA4Oko1AwfgCaMasRFR8AFuCg9wtTwf_k_ZW91aZPl16uwMSo9ZTWs_iQUbKfuITOaYJLdWQPZ4eqChI0ek1ZHgIapsJoZJsmRGTu_h2ldXt7n3T_V7qjARHGH3OYDDXWBrbGCOaIiDjGJpPNoFlz-R0sPe8sSglViGIIG0-OQNIwEw1NDoAasjHmePTkSb5FqAPT0aRW0fvdcOKP_DbIzuyF3EX__lmXBMFgNfcbs-U7ofykFLzVlLs_EVzuSWdMRiJq-JuydESWPSxIEXUgC5mAgK1454IcNZ3MvOY2T-loWnsLn0IC7pHIRoQOrS9aI6E_Le4rKNca1730KIn5HHOs7b89l8ysUWXGxD_b9vL68YLeoZzHg0UzBjH4fJ10e5gqO1ikMMlb_aor5g414mBO6h20C38LJamIYzPExfXhMnQLf7tjQ8SOiL22t2kqG56xRxCbhIslsTXbVfftSt9ocLfAnpRgsXKCjHZDwKOBWN7sPTffw3aPgesC0fwc5O0rAIZMrh_Ufl1o4HGSPMcxov5BZf0vCAItMQN3r-I2MSqApFMaqWe5ZZCO8j-bJHYWeL1CDtHjsNixxLwKNCADq1zkzBHDAzshq0cQKhbgzhPzHUjCTByR5BukXUuQMox9SVjkzD1FS7mTT3Ds3COlMs-TUm8pIzMTthoUKxWBt0cQKhljxE_-_HElrzIXQj-QZQFy0]--></g></svg>